<svg width="92" height="51" viewBox="0 0 92 51" fill="none" xmlns="http://www.w3.org/2000/svg">
<mask id="path-1-outside-1_12_232" maskUnits="userSpaceOnUse" x="-1" y="-1" width="94" height="53" fill="black">
<rect fill="white" x="-1" y="-1" width="94" height="53"/>
<path d="M32.56 43.91C29.34 48.4833 24.8367 50.77 19.05 50.77C13.2633 50.77 8.76 48.4833 5.54 43.91C2.32 39.3367 0.71 33.2 0.71 25.5C0.71 17.8 2.32 11.6633 5.54 7.09C8.76 2.51666 13.2633 0.229998 19.05 0.229998C24.8367 0.229998 29.34 2.51666 32.56 7.09C35.78 11.6633 37.39 17.8 37.39 25.5C37.39 33.2 35.78 39.3367 32.56 43.91ZM8.34 41.53C10.9067 45.31 14.4767 47.2 19.05 47.2C23.6233 47.2 27.1933 45.31 29.76 41.53C32.3267 37.7033 33.61 32.36 33.61 25.5C33.61 18.64 32.3267 13.32 29.76 9.54C27.1933 5.71333 23.6233 3.8 19.05 3.8C14.4767 3.8 10.9067 5.71333 8.34 9.54C5.77333 13.32 4.49 18.64 4.49 25.5C4.49 32.36 5.77333 37.7033 8.34 41.53ZM79.4518 36.21V39.71H73.1518V50H69.4418V39.71H43.0518V36.21L61.6718 0.999997H65.7318L47.1818 36.21H69.4418V20.81H73.1518V36.21H79.4518ZM90.9488 49.79C90.3421 50.3967 89.5954 50.7 88.7088 50.7C87.8221 50.7 87.0754 50.3967 86.4688 49.79C85.8621 49.1833 85.5588 48.4367 85.5588 47.55C85.5588 46.6633 85.8621 45.9167 86.4688 45.31C87.0754 44.7033 87.8221 44.4 88.7088 44.4C89.5954 44.4 90.3421 44.7033 90.9488 45.31C91.5554 45.9167 91.8588 46.6633 91.8588 47.55C91.8588 48.4367 91.5554 49.1833 90.9488 49.79Z"/>
</mask>
<path d="M32.56 43.91L31.7423 43.3343L32.56 43.91ZM5.54 43.91L6.35766 43.3343L5.54 43.91ZM8.34 41.53L7.5095 42.087L7.51269 42.0918L8.34 41.53ZM29.76 41.53L30.5873 42.0918L30.5905 42.087L29.76 41.53ZM29.76 9.54L28.9295 10.097L28.9327 10.1017L29.76 9.54ZM8.34 9.54L9.16732 10.1018L9.17049 10.097L8.34 9.54ZM31.7423 43.3343C28.7172 47.6309 24.5247 49.77 19.05 49.77V51.77C25.1487 51.77 29.9628 49.3358 33.3777 44.4857L31.7423 43.3343ZM19.05 49.77C13.5753 49.77 9.38279 47.6309 6.35766 43.3343L4.72234 44.4857C8.13721 49.3358 12.9514 51.77 19.05 51.77V49.77ZM6.35766 43.3343C3.29349 38.9823 1.71 33.0696 1.71 25.5H-0.29C-0.29 33.3304 1.34651 39.6911 4.72234 44.4857L6.35766 43.3343ZM1.71 25.5C1.71 17.9304 3.29349 12.0177 6.35766 7.6657L4.72234 6.5143C1.34651 11.3089 -0.29 17.6696 -0.29 25.5H1.71ZM6.35766 7.6657C9.38279 3.36913 13.5753 1.23 19.05 1.23V-0.770001C12.9514 -0.770001 8.13721 1.6642 4.72234 6.5143L6.35766 7.6657ZM19.05 1.23C24.5247 1.23 28.7172 3.36913 31.7423 7.6657L33.3777 6.5143C29.9628 1.6642 25.1487 -0.770001 19.05 -0.770001V1.23ZM31.7423 7.6657C34.8065 12.0177 36.39 17.9304 36.39 25.5H38.39C38.39 17.6696 36.7535 11.3089 33.3777 6.5143L31.7423 7.6657ZM36.39 25.5C36.39 33.0696 34.8065 38.9823 31.7423 43.3343L33.3777 44.4857C36.7535 39.6911 38.39 33.3304 38.39 25.5H36.39ZM7.51269 42.0918C10.2657 46.1462 14.1457 48.2 19.05 48.2V46.2C14.8076 46.2 11.5476 44.4738 9.16731 40.9682L7.51269 42.0918ZM19.05 48.2C23.9543 48.2 27.8343 46.1462 30.5873 42.0918L28.9327 40.9682C26.5524 44.4738 23.2924 46.2 19.05 46.2V48.2ZM30.5905 42.087C33.3094 38.0333 34.61 32.4671 34.61 25.5H32.61C32.61 32.2529 31.3439 37.3733 28.9295 40.973L30.5905 42.087ZM34.61 25.5C34.61 18.5341 33.3099 12.9878 30.5873 8.97825L28.9327 10.1017C31.3435 13.6522 32.61 18.7459 32.61 25.5H34.61ZM30.5905 8.98296C27.8398 4.88196 23.9597 2.8 19.05 2.8V4.8C23.287 4.8 26.5469 6.5447 28.9295 10.097L30.5905 8.98296ZM19.05 2.8C14.1403 2.8 10.2602 4.88196 7.50951 8.98296L9.17049 10.097C11.5531 6.5447 14.813 4.8 19.05 4.8V2.8ZM7.51269 8.97825C4.79013 12.9878 3.49 18.5341 3.49 25.5H5.49C5.49 18.7459 6.75654 13.6522 9.16731 10.1018L7.51269 8.97825ZM3.49 25.5C3.49 32.4671 4.79057 38.0333 7.50951 42.087L9.17049 40.973C6.7561 37.3733 5.49 32.2529 5.49 25.5H3.49ZM79.4518 36.21H80.4518V35.21H79.4518V36.21ZM79.4518 39.71V40.71H80.4518V39.71H79.4518ZM73.1518 39.71V38.71H72.1518V39.71H73.1518ZM73.1518 50V51H74.1518V50H73.1518ZM69.4418 50H68.4418V51H69.4418V50ZM69.4418 39.71H70.4418V38.71H69.4418V39.71ZM43.0518 39.71H42.0518V40.71H43.0518V39.71ZM43.0518 36.21L42.1678 35.7425L42.0518 35.9619V36.21H43.0518ZM61.6718 0.999996V-3.8147e-06H61.0694L60.7878 0.532513L61.6718 0.999996ZM65.7318 0.999996L66.6165 1.46611L67.3889 -3.8147e-06H65.7318V0.999996ZM47.1818 36.21L46.2971 35.7439L45.5247 37.21H47.1818V36.21ZM69.4418 36.21V37.21H70.4418V36.21H69.4418ZM69.4418 20.81V19.81H68.4418V20.81H69.4418ZM73.1518 20.81H74.1518V19.81H73.1518V20.81ZM73.1518 36.21H72.1518V37.21H73.1518V36.21ZM78.4518 36.21V39.71H80.4518V36.21H78.4518ZM79.4518 38.71H73.1518V40.71H79.4518V38.71ZM72.1518 39.71V50H74.1518V39.71H72.1518ZM73.1518 49H69.4418V51H73.1518V49ZM70.4418 50V39.71H68.4418V50H70.4418ZM69.4418 38.71H43.0518V40.71H69.4418V38.71ZM44.0518 39.71V36.21H42.0518V39.71H44.0518ZM43.9358 36.6775L62.5558 1.46748L60.7878 0.532513L42.1678 35.7425L43.9358 36.6775ZM61.6718 2H65.7318V-3.8147e-06H61.6718V2ZM64.8471 0.533888L46.2971 35.7439L48.0665 36.6761L66.6165 1.46611L64.8471 0.533888ZM47.1818 37.21H69.4418V35.21H47.1818V37.21ZM70.4418 36.21V20.81H68.4418V36.21H70.4418ZM69.4418 21.81H73.1518V19.81H69.4418V21.81ZM72.1518 20.81V36.21H74.1518V20.81H72.1518ZM73.1518 37.21H79.4518V35.21H73.1518V37.21ZM90.9488 49.79L91.6559 50.4971L90.9488 49.79ZM86.4688 49.79L85.7616 50.4971L86.4688 49.79ZM86.4688 45.31L87.1759 46.0171L86.4688 45.31ZM90.9488 45.31L91.6559 44.6029L90.9488 45.31ZM90.2416 49.0829C89.8294 49.4951 89.3401 49.7 88.7087 49.7V51.7C89.8507 51.7 90.8548 51.2982 91.6559 50.4971L90.2416 49.0829ZM88.7087 49.7C88.0774 49.7 87.5881 49.4951 87.1759 49.0829L85.7616 50.4971C86.5627 51.2982 87.5668 51.7 88.7087 51.7V49.7ZM87.1759 49.0829C86.7636 48.6707 86.5588 48.1814 86.5588 47.55H84.5588C84.5588 48.692 84.9605 49.696 85.7616 50.4971L87.1759 49.0829ZM86.5588 47.55C86.5588 46.9186 86.7636 46.4293 87.1759 46.0171L85.7616 44.6029C84.9605 45.404 84.5588 46.408 84.5588 47.55H86.5588ZM87.1759 46.0171C87.5881 45.6049 88.0774 45.4 88.7087 45.4V43.4C87.5668 43.4 86.5627 43.8018 85.7616 44.6029L87.1759 46.0171ZM88.7087 45.4C89.3401 45.4 89.8294 45.6049 90.2416 46.0171L91.6559 44.6029C90.8548 43.8018 89.8507 43.4 88.7087 43.4V45.4ZM90.2416 46.0171C90.6539 46.4293 90.8587 46.9186 90.8587 47.55H92.8587C92.8587 46.408 92.457 45.404 91.6559 44.6029L90.2416 46.0171ZM90.8587 47.55C90.8587 48.1814 90.6539 48.6707 90.2416 49.0829L91.6559 50.4971C92.457 49.696 92.8587 48.692 92.8587 47.55H90.8587Z" fill="#3E3D3C" mask="url(#path-1-outside-1_12_232)"/>
</svg>
