<svg width="88" height="51" viewBox="0 0 88 51" fill="none" xmlns="http://www.w3.org/2000/svg">
<mask id="path-1-outside-1_12_222" maskUnits="userSpaceOnUse" x="-1" y="-1" width="90" height="53" fill="black">
<rect fill="white" x="-1" y="-1" width="90" height="53"/>
<path d="M32.56 43.91C29.34 48.4833 24.8367 50.77 19.05 50.77C13.2633 50.77 8.76 48.4833 5.54 43.91C2.32 39.3367 0.71 33.2 0.71 25.5C0.71 17.8 2.32 11.6633 5.54 7.09C8.76 2.51666 13.2633 0.229998 19.05 0.229998C24.8367 0.229998 29.34 2.51666 32.56 7.09C35.78 11.6633 37.39 17.8 37.39 25.5C37.39 33.2 35.78 39.3367 32.56 43.91ZM8.34 41.53C10.9067 45.31 14.4767 47.2 19.05 47.2C23.6233 47.2 27.1933 45.31 29.76 41.53C32.3267 37.7033 33.61 32.36 33.61 25.5C33.61 18.64 32.3267 13.32 29.76 9.54C27.1933 5.71333 23.6233 3.8 19.05 3.8C14.4767 3.8 10.9067 5.71333 8.34 9.54C5.77333 13.32 4.49 18.64 4.49 25.5C4.49 32.36 5.77333 37.7033 8.34 41.53ZM43.4182 50V46.64L61.4082 28.16C66.6815 22.7 69.3182 18.08 69.3182 14.3C69.3182 11.0333 68.2915 8.46666 66.2382 6.6C64.1849 4.73333 61.6182 3.8 58.5382 3.8C53.0782 3.8 49.1815 6.27333 46.8482 11.22L43.6982 9.33C45.1449 6.39 47.1515 4.15 49.7182 2.61C52.3315 1.02333 55.2715 0.229998 58.5382 0.229998C62.5049 0.229998 65.9115 1.49 68.7582 4.01C71.6515 6.53 73.0982 9.96 73.0982 14.3C73.0982 17.1 72.2815 19.83 70.6482 22.49C69.0615 25.1033 66.8215 27.88 63.9282 30.82L48.7382 46.43H74.2182V50H43.4182ZM87.0523 49.79C86.4456 50.3967 85.6989 50.7 84.8123 50.7C83.9256 50.7 83.1789 50.3967 82.5723 49.79C81.9656 49.1833 81.6623 48.4367 81.6623 47.55C81.6623 46.6633 81.9656 45.9167 82.5723 45.31C83.1789 44.7033 83.9256 44.4 84.8123 44.4C85.6989 44.4 86.4456 44.7033 87.0523 45.31C87.6589 45.9167 87.9623 46.6633 87.9623 47.55C87.9623 48.4367 87.6589 49.1833 87.0523 49.79Z"/>
</mask>
<path d="M32.56 43.91C29.34 48.4833 24.8367 50.77 19.05 50.77C13.2633 50.77 8.76 48.4833 5.54 43.91C2.32 39.3367 0.71 33.2 0.71 25.5C0.71 17.8 2.32 11.6633 5.54 7.09C8.76 2.51666 13.2633 0.229998 19.05 0.229998C24.8367 0.229998 29.34 2.51666 32.56 7.09C35.78 11.6633 37.39 17.8 37.39 25.5C37.39 33.2 35.78 39.3367 32.56 43.91ZM8.34 41.53C10.9067 45.31 14.4767 47.2 19.05 47.2C23.6233 47.2 27.1933 45.31 29.76 41.53C32.3267 37.7033 33.61 32.36 33.61 25.5C33.61 18.64 32.3267 13.32 29.76 9.54C27.1933 5.71333 23.6233 3.8 19.05 3.8C14.4767 3.8 10.9067 5.71333 8.34 9.54C5.77333 13.32 4.49 18.64 4.49 25.5C4.49 32.36 5.77333 37.7033 8.34 41.53ZM43.4182 50V46.64L61.4082 28.16C66.6815 22.7 69.3182 18.08 69.3182 14.3C69.3182 11.0333 68.2915 8.46666 66.2382 6.6C64.1849 4.73333 61.6182 3.8 58.5382 3.8C53.0782 3.8 49.1815 6.27333 46.8482 11.22L43.6982 9.33C45.1449 6.39 47.1515 4.15 49.7182 2.61C52.3315 1.02333 55.2715 0.229998 58.5382 0.229998C62.5049 0.229998 65.9115 1.49 68.7582 4.01C71.6515 6.53 73.0982 9.96 73.0982 14.3C73.0982 17.1 72.2815 19.83 70.6482 22.49C69.0615 25.1033 66.8215 27.88 63.9282 30.82L48.7382 46.43H74.2182V50H43.4182ZM87.0523 49.79C86.4456 50.3967 85.6989 50.7 84.8123 50.7C83.9256 50.7 83.1789 50.3967 82.5723 49.79C81.9656 49.1833 81.6623 48.4367 81.6623 47.55C81.6623 46.6633 81.9656 45.9167 82.5723 45.31C83.1789 44.7033 83.9256 44.4 84.8123 44.4C85.6989 44.4 86.4456 44.7033 87.0523 45.31C87.6589 45.9167 87.9623 46.6633 87.9623 47.55C87.9623 48.4367 87.6589 49.1833 87.0523 49.79Z" fill="#D9D9D9"/>
<path d="M32.56 43.91L31.7423 43.3343L31.7423 43.3343L32.56 43.91ZM5.54 43.91L6.35766 43.3343L6.35766 43.3343L5.54 43.91ZM8.34 41.53L7.5095 42.087L7.51269 42.0918L8.34 41.53ZM29.76 41.53L30.5873 42.0918L30.5905 42.087L29.76 41.53ZM29.76 9.54L28.9295 10.097L28.9327 10.1018L29.76 9.54ZM8.34 9.54L9.16732 10.1018L9.17049 10.097L8.34 9.54ZM31.7423 43.3343C28.7172 47.6309 24.5247 49.77 19.05 49.77V51.77C25.1487 51.77 29.9628 49.3358 33.3777 44.4857L31.7423 43.3343ZM19.05 49.77C13.5753 49.77 9.38279 47.6309 6.35766 43.3343L4.72234 44.4857C8.13721 49.3358 12.9514 51.77 19.05 51.77V49.77ZM6.35766 43.3343C3.29349 38.9823 1.71 33.0696 1.71 25.5H-0.29C-0.29 33.3304 1.34651 39.691 4.72234 44.4857L6.35766 43.3343ZM1.71 25.5C1.71 17.9304 3.29349 12.0177 6.35766 7.6657L4.72234 6.5143C1.34651 11.3089 -0.29 17.6696 -0.29 25.5H1.71ZM6.35766 7.6657C9.38279 3.36913 13.5753 1.23 19.05 1.23V-0.770002C12.9514 -0.770002 8.13721 1.6642 4.72234 6.5143L6.35766 7.6657ZM19.05 1.23C24.5247 1.23 28.7172 3.36913 31.7423 7.6657L33.3777 6.5143C29.9628 1.6642 25.1487 -0.770002 19.05 -0.770002V1.23ZM31.7423 7.6657C34.8065 12.0177 36.39 17.9304 36.39 25.5H38.39C38.39 17.6696 36.7535 11.3089 33.3777 6.5143L31.7423 7.6657ZM36.39 25.5C36.39 33.0696 34.8065 38.9823 31.7423 43.3343L33.3777 44.4857C36.7535 39.691 38.39 33.3304 38.39 25.5H36.39ZM7.51269 42.0918C10.2657 46.1462 14.1457 48.2 19.05 48.2V46.2C14.8076 46.2 11.5476 44.4738 9.16731 40.9682L7.51269 42.0918ZM19.05 48.2C23.9543 48.2 27.8343 46.1462 30.5873 42.0918L28.9327 40.9682C26.5524 44.4738 23.2924 46.2 19.05 46.2V48.2ZM30.5905 42.087C33.3094 38.0333 34.61 32.4671 34.61 25.5H32.61C32.61 32.2529 31.3439 37.3733 28.9295 40.973L30.5905 42.087ZM34.61 25.5C34.61 18.5341 33.3099 12.9878 30.5873 8.97825L28.9327 10.1018C31.3435 13.6522 32.61 18.7459 32.61 25.5H34.61ZM30.5905 8.98296C27.8398 4.88196 23.9597 2.8 19.05 2.8V4.8C23.287 4.8 26.5469 6.5447 28.9295 10.097L30.5905 8.98296ZM19.05 2.8C14.1403 2.8 10.2602 4.88196 7.50951 8.98296L9.17049 10.097C11.5531 6.5447 14.813 4.8 19.05 4.8V2.8ZM7.51269 8.97825C4.79013 12.9878 3.49 18.5341 3.49 25.5H5.49C5.49 18.7459 6.75654 13.6522 9.16731 10.1018L7.51269 8.97825ZM3.49 25.5C3.49 32.4671 4.79057 38.0333 7.50951 42.087L9.17049 40.973C6.7561 37.3733 5.49 32.2529 5.49 25.5H3.49ZM43.4182 50H42.4182V51H43.4182V50ZM43.4182 46.64L42.7017 45.9425L42.4182 46.2336V46.64H43.4182ZM61.4082 28.16L62.1248 28.8575L62.1275 28.8547L61.4082 28.16ZM66.2382 6.6L65.5655 7.33994L65.5655 7.33994L66.2382 6.6ZM46.8482 11.22L46.3337 12.0775L47.2812 12.646L47.7526 11.6466L46.8482 11.22ZM43.6982 9.33L42.8009 8.88849L42.3947 9.71409L43.1837 10.1875L43.6982 9.33ZM49.7182 2.61L50.2327 3.4675L50.2372 3.46478L49.7182 2.61ZM68.7582 4.01L68.0953 4.75879L68.1014 4.76408L68.7582 4.01ZM70.6482 22.49L69.796 21.9667L69.7934 21.971L70.6482 22.49ZM63.9282 30.82L63.2155 30.1186L63.2115 30.1226L63.9282 30.82ZM48.7382 46.43L48.0215 45.7326L46.3698 47.43H48.7382V46.43ZM74.2182 46.43H75.2182V45.43H74.2182V46.43ZM74.2182 50V51H75.2182V50H74.2182ZM44.4182 50V46.64H42.4182V50H44.4182ZM44.1347 47.3375L62.1247 28.8575L60.6917 27.4625L42.7017 45.9425L44.1347 47.3375ZM62.1275 28.8547C67.4245 23.3702 70.3182 18.5 70.3182 14.3H68.3182C68.3182 17.66 65.9386 22.0298 60.6889 27.4653L62.1275 28.8547ZM70.3182 14.3C70.3182 10.8062 69.2099 7.95009 66.9109 5.86006L65.5655 7.33994C67.3732 8.98323 68.3182 11.2605 68.3182 14.3H70.3182ZM66.9109 5.86006C64.6527 3.8072 61.8374 2.8 58.5382 2.8V4.8C61.399 4.8 63.717 5.65947 65.5655 7.33994L66.9109 5.86006ZM58.5382 2.8C55.6536 2.8 53.1207 3.45498 50.9848 4.81071C48.849 6.16638 47.1761 8.18086 45.9438 10.7934L47.7526 11.6466C48.8536 9.31247 50.2957 7.61695 52.0566 6.49928C53.8173 5.38168 55.9628 4.8 58.5382 4.8V2.8ZM47.3627 10.3625L44.2127 8.47251L43.1837 10.1875L46.3337 12.0775L47.3627 10.3625ZM44.5955 9.77151C45.9656 6.98711 47.8465 4.89922 50.2327 3.46749L49.2037 1.7525C46.4566 3.40078 44.3242 5.79289 42.8009 8.88849L44.5955 9.77151ZM50.2372 3.46478C52.6833 1.97965 55.4415 1.23 58.5382 1.23V-0.770002C55.1016 -0.770002 51.9798 0.0670132 49.1992 1.75521L50.2372 3.46478ZM58.5382 1.23C62.2722 1.23 65.4401 2.40815 68.0954 4.75876L69.421 3.26124C66.383 0.571843 62.7375 -0.770002 58.5382 -0.770002V1.23ZM68.1014 4.76408C70.7467 7.06806 72.0982 10.2069 72.0982 14.3H74.0982C74.0982 9.71311 72.5563 5.99194 69.415 3.25592L68.1014 4.76408ZM72.0982 14.3C72.0982 16.8946 71.3441 19.4456 69.796 21.9667L71.5004 23.0133C73.219 20.2144 74.0982 17.3054 74.0982 14.3H72.0982ZM69.7934 21.971C68.258 24.4999 66.0721 27.2159 63.2155 30.1186L64.6409 31.5214C67.571 28.5441 69.865 25.7068 71.503 23.009L69.7934 21.971ZM63.2115 30.1226L48.0215 45.7326L49.4549 47.1274L64.6449 31.5174L63.2115 30.1226ZM48.7382 47.43H74.2182V45.43H48.7382V47.43ZM73.2182 46.43V50H75.2182V46.43H73.2182ZM74.2182 49H43.4182V51H74.2182V49ZM87.0523 49.79L87.7594 50.4971L87.7594 50.4971L87.0523 49.79ZM82.5723 49.79L81.8652 50.4971L81.8652 50.4971L82.5723 49.79ZM82.5723 45.31L83.2794 46.0171L82.5723 45.31ZM87.0523 45.31L87.7594 44.6029L87.7594 44.6029L87.0523 45.31ZM86.3452 49.0829C85.9329 49.4951 85.4436 49.7 84.8123 49.7V51.7C85.9542 51.7 86.9583 51.2982 87.7594 50.4971L86.3452 49.0829ZM84.8123 49.7C84.1809 49.7 83.6916 49.4951 83.2794 49.0829L81.8652 50.4971C82.6663 51.2982 83.6703 51.7 84.8123 51.7V49.7ZM83.2794 49.0829C82.8671 48.6707 82.6623 48.1814 82.6623 47.55H80.6623C80.6623 48.692 81.0641 49.696 81.8652 50.4971L83.2794 49.0829ZM82.6623 47.55C82.6623 46.9186 82.8671 46.4293 83.2794 46.0171L81.8652 44.6029C81.0641 45.404 80.6623 46.408 80.6623 47.55H82.6623ZM83.2794 46.0171C83.6916 45.6049 84.1809 45.4 84.8123 45.4V43.4C83.6703 43.4 82.6663 43.8018 81.8652 44.6029L83.2794 46.0171ZM84.8123 45.4C85.4436 45.4 85.9329 45.6049 86.3452 46.0171L87.7594 44.6029C86.9583 43.8018 85.9542 43.4 84.8123 43.4V45.4ZM86.3452 46.0171C86.7574 46.4293 86.9623 46.9186 86.9623 47.55H88.9623C88.9623 46.408 88.5605 45.404 87.7594 44.6029L86.3452 46.0171ZM86.9623 47.55C86.9623 48.1814 86.7574 48.6707 86.3452 49.0829L87.7594 50.4971C88.5605 49.696 88.9623 48.692 88.9623 47.55H86.9623Z" fill="#3E3D3C" mask="url(#path-1-outside-1_12_222)"/>
</svg>
