<svg width="89" height="51" viewBox="0 0 89 51" fill="none" xmlns="http://www.w3.org/2000/svg">
<mask id="path-1-outside-1_12_237" maskUnits="userSpaceOnUse" x="-1" y="-1" width="91" height="53" fill="black">
<rect fill="white" x="-1" y="-1" width="91" height="53"/>
<path d="M32.56 43.91C29.34 48.4833 24.8367 50.77 19.05 50.77C13.2633 50.77 8.76 48.4833 5.54 43.91C2.32 39.3367 0.71 33.2 0.71 25.5C0.71 17.8 2.32 11.6633 5.54 7.09C8.76 2.51666 13.2633 0.229998 19.05 0.229998C24.8367 0.229998 29.34 2.51666 32.56 7.09C35.78 11.6633 37.39 17.8 37.39 25.5C37.39 33.2 35.78 39.3367 32.56 43.91ZM8.34 41.53C10.9067 45.31 14.4767 47.2 19.05 47.2C23.6233 47.2 27.1933 45.31 29.76 41.53C32.3267 37.7033 33.61 32.36 33.61 25.5C33.61 18.64 32.3267 13.32 29.76 9.54C27.1933 5.71333 23.6233 3.8 19.05 3.8C14.4767 3.8 10.9067 5.71333 8.34 9.54C5.77333 13.32 4.49 18.64 4.49 25.5C4.49 32.36 5.77333 37.7033 8.34 41.53ZM59.7118 20.95C64.2851 20.95 68.1351 22.3033 71.2618 25.01C74.4351 27.67 76.0218 31.2867 76.0218 35.86C76.0218 40.4333 74.4351 44.0733 71.2618 46.78C68.1351 49.44 64.2851 50.77 59.7118 50.77C56.1185 50.77 52.8985 49.9067 50.0518 48.18C47.2518 46.4533 45.3151 44.0267 44.2418 40.9L47.3918 39.08C48.1851 41.6933 49.6785 43.7 51.8718 45.1C54.0651 46.5 56.6785 47.2 59.7118 47.2C63.3985 47.2 66.4085 46.1733 68.7418 44.12C71.1218 42.0667 72.3118 39.3133 72.3118 35.86C72.3118 32.4067 71.1218 29.6533 68.7418 27.6C66.4085 25.5467 63.3985 24.52 59.7118 24.52H46.6218L48.3018 0.999997H74.2018V4.5H51.5918L50.4718 20.95H59.7118ZM87.3257 49.79C86.719 50.3967 85.9724 50.7 85.0857 50.7C84.199 50.7 83.4524 50.3967 82.8457 49.79C82.239 49.1833 81.9357 48.4367 81.9357 47.55C81.9357 46.6633 82.239 45.9167 82.8457 45.31C83.4524 44.7033 84.199 44.4 85.0857 44.4C85.9724 44.4 86.719 44.7033 87.3257 45.31C87.9324 45.9167 88.2357 46.6633 88.2357 47.55C88.2357 48.4367 87.9324 49.1833 87.3257 49.79Z"/>
</mask>
<path d="M32.56 43.91L31.7423 43.3343L32.56 43.91ZM5.54 43.91L6.35766 43.3343L5.54 43.91ZM8.34 41.53L7.5095 42.087L7.51269 42.0918L8.34 41.53ZM29.76 41.53L30.5873 42.0918L30.5905 42.087L29.76 41.53ZM29.76 9.54L28.9295 10.097L28.9327 10.1017L29.76 9.54ZM8.34 9.54L9.16732 10.1018L9.17049 10.097L8.34 9.54ZM31.7423 43.3343C28.7172 47.6309 24.5247 49.77 19.05 49.77V51.77C25.1487 51.77 29.9628 49.3358 33.3777 44.4857L31.7423 43.3343ZM19.05 49.77C13.5753 49.77 9.38279 47.6309 6.35766 43.3343L4.72234 44.4857C8.13721 49.3358 12.9514 51.77 19.05 51.77V49.77ZM6.35766 43.3343C3.29349 38.9823 1.71 33.0696 1.71 25.5H-0.29C-0.29 33.3304 1.34651 39.6911 4.72234 44.4857L6.35766 43.3343ZM1.71 25.5C1.71 17.9304 3.29349 12.0177 6.35766 7.6657L4.72234 6.5143C1.34651 11.3089 -0.29 17.6696 -0.29 25.5H1.71ZM6.35766 7.6657C9.38279 3.36913 13.5753 1.23 19.05 1.23V-0.770001C12.9514 -0.770001 8.13721 1.6642 4.72234 6.5143L6.35766 7.6657ZM19.05 1.23C24.5247 1.23 28.7172 3.36913 31.7423 7.6657L33.3777 6.5143C29.9628 1.6642 25.1487 -0.770001 19.05 -0.770001V1.23ZM31.7423 7.6657C34.8065 12.0177 36.39 17.9304 36.39 25.5H38.39C38.39 17.6696 36.7535 11.3089 33.3777 6.5143L31.7423 7.6657ZM36.39 25.5C36.39 33.0696 34.8065 38.9823 31.7423 43.3343L33.3777 44.4857C36.7535 39.6911 38.39 33.3304 38.39 25.5H36.39ZM7.51269 42.0918C10.2657 46.1462 14.1457 48.2 19.05 48.2V46.2C14.8076 46.2 11.5476 44.4738 9.16731 40.9682L7.51269 42.0918ZM19.05 48.2C23.9543 48.2 27.8343 46.1462 30.5873 42.0918L28.9327 40.9682C26.5524 44.4738 23.2924 46.2 19.05 46.2V48.2ZM30.5905 42.087C33.3094 38.0333 34.61 32.4671 34.61 25.5H32.61C32.61 32.2529 31.3439 37.3733 28.9295 40.973L30.5905 42.087ZM34.61 25.5C34.61 18.5341 33.3099 12.9878 30.5873 8.97825L28.9327 10.1017C31.3435 13.6522 32.61 18.7459 32.61 25.5H34.61ZM30.5905 8.98296C27.8398 4.88196 23.9597 2.8 19.05 2.8V4.8C23.287 4.8 26.5469 6.5447 28.9295 10.097L30.5905 8.98296ZM19.05 2.8C14.1403 2.8 10.2602 4.88196 7.50951 8.98296L9.17049 10.097C11.5531 6.5447 14.813 4.8 19.05 4.8V2.8ZM7.51269 8.97825C4.79013 12.9878 3.49 18.5341 3.49 25.5H5.49C5.49 18.7459 6.75654 13.6522 9.16731 10.1018L7.51269 8.97825ZM3.49 25.5C3.49 32.4671 4.79057 38.0333 7.50951 42.087L9.17049 40.973C6.7561 37.3733 5.49 32.2529 5.49 25.5H3.49ZM71.2618 25.01L70.6073 25.7661L70.6133 25.7713L70.6194 25.7764L71.2618 25.01ZM71.2618 46.78L71.9098 47.5417L71.9107 47.5408L71.2618 46.78ZM50.0518 48.18L49.5269 49.0312L49.5332 49.035L50.0518 48.18ZM44.2418 40.9L43.7415 40.0341L43.0287 40.446L43.296 41.2247L44.2418 40.9ZM47.3918 39.08L48.3487 38.7895L47.9826 37.5837L46.8915 38.2141L47.3918 39.08ZM51.8718 45.1L52.4098 44.2571L51.8718 45.1ZM68.7418 44.12L68.0885 43.3628L68.0812 43.3693L68.7418 44.12ZM68.7418 27.6L68.0811 28.3507L68.0886 28.3572L68.7418 27.6ZM46.6218 24.52L45.6243 24.4487L45.5478 25.52H46.6218V24.52ZM48.3018 0.999996V-3.8147e-06H47.3707L47.3043 0.92875L48.3018 0.999996ZM74.2018 0.999996H75.2018V-3.8147e-06H74.2018V0.999996ZM74.2018 4.5V5.5H75.2018V4.5H74.2018ZM51.5918 4.5V3.5H50.6576L50.5941 4.43207L51.5918 4.5ZM50.4718 20.95L49.4741 20.8821L49.4014 21.95H50.4718V20.95ZM59.7118 21.95C64.0721 21.95 67.682 23.2337 70.6073 25.7661L71.9163 24.2539C68.5882 21.3729 64.4982 19.95 59.7118 19.95V21.95ZM70.6194 25.7764C73.5406 28.225 75.0218 31.5475 75.0218 35.86H77.0218C77.0218 31.0258 75.3297 27.115 71.9042 24.2436L70.6194 25.7764ZM75.0218 35.86C75.0218 40.1725 73.5403 43.5223 70.6129 46.0192L71.9107 47.5408C75.33 44.6244 77.0218 40.6942 77.0218 35.86H75.0218ZM70.6138 46.0183C67.6889 48.5067 64.0766 49.77 59.7118 49.77V51.77C64.4936 51.77 68.5814 50.3733 71.9098 47.5417L70.6138 46.0183ZM59.7118 49.77C56.2863 49.77 53.2483 48.9493 50.5704 47.325L49.5332 49.035C52.5486 50.864 55.9506 51.77 59.7118 51.77V49.77ZM50.5767 47.3288C47.9748 45.7243 46.1862 43.4842 45.1876 40.5753L43.296 41.2247C44.4441 44.5691 46.5288 47.1824 49.5269 49.0312L50.5767 47.3288ZM44.7421 41.7659L47.8921 39.9459L46.8915 38.2141L43.7415 40.0341L44.7421 41.7659ZM46.4349 39.3705C47.2938 42.1997 48.9288 44.4079 51.3338 45.9429L52.4098 44.2571C50.4281 42.9921 49.0765 41.187 48.3487 38.7895L46.4349 39.3705ZM51.3338 45.9429C53.713 47.4616 56.52 48.2 59.7118 48.2V46.2C56.8369 46.2 54.4173 45.5384 52.4098 44.2571L51.3338 45.9429ZM59.7118 48.2C63.5939 48.2 66.8536 47.1137 69.4024 44.8707L68.0812 43.3693C65.9633 45.233 63.203 46.2 59.7118 46.2V48.2ZM69.395 44.8772C72.0185 42.6137 73.3118 39.5718 73.3118 35.86H71.3118C71.3118 39.0548 70.2251 41.5196 68.0886 43.3628L69.395 44.8772ZM73.3118 35.86C73.3118 32.1482 72.0185 29.1063 69.395 26.8428L68.0886 28.3572C70.2251 30.2004 71.3118 32.6652 71.3118 35.86H73.3118ZM69.4024 26.8493C66.8536 24.6063 63.5939 23.52 59.7118 23.52V25.52C63.203 25.52 65.9633 26.487 68.0812 28.3507L69.4024 26.8493ZM59.7118 23.52H46.6218V25.52H59.7118V23.52ZM47.6193 24.5912L49.2993 1.07124L47.3043 0.92875L45.6243 24.4487L47.6193 24.5912ZM48.3018 2H74.2018V-3.8147e-06H48.3018V2ZM73.2018 0.999996V4.5H75.2018V0.999996H73.2018ZM74.2018 3.5H51.5918V5.5H74.2018V3.5ZM50.5941 4.43207L49.4741 20.8821L51.4695 21.0179L52.5895 4.56792L50.5941 4.43207ZM50.4718 21.95H59.7118V19.95H50.4718V21.95ZM87.3257 49.79L88.0328 50.4971L87.3257 49.79ZM82.8457 49.79L82.1386 50.4971L82.8457 49.79ZM82.8457 45.31L83.5528 46.0171L82.8457 45.31ZM87.3257 45.31L88.0328 44.6029L87.3257 45.31ZM86.6186 49.0829C86.2064 49.4951 85.7171 49.7 85.0857 49.7V51.7C86.2277 51.7 87.2317 51.2982 88.0328 50.4971L86.6186 49.0829ZM85.0857 49.7C84.4543 49.7 83.965 49.4951 83.5528 49.0829L82.1386 50.4971C82.9397 51.2982 83.9437 51.7 85.0857 51.7V49.7ZM83.5528 49.0829C83.1406 48.6707 82.9357 48.1814 82.9357 47.55H80.9357C80.9357 48.692 81.3375 49.696 82.1386 50.4971L83.5528 49.0829ZM82.9357 47.55C82.9357 46.9186 83.1406 46.4293 83.5528 46.0171L82.1386 44.6029C81.3375 45.404 80.9357 46.408 80.9357 47.55H82.9357ZM83.5528 46.0171C83.965 45.6049 84.4543 45.4 85.0857 45.4V43.4C83.9437 43.4 82.9397 43.8018 82.1386 44.6029L83.5528 46.0171ZM85.0857 45.4C85.7171 45.4 86.2064 45.6049 86.6186 46.0171L88.0328 44.6029C87.2317 43.8018 86.2277 43.4 85.0857 43.4V45.4ZM86.6186 46.0171C87.0308 46.4293 87.2357 46.9186 87.2357 47.55H89.2357C89.2357 46.408 88.8339 45.404 88.0328 44.6029L86.6186 46.0171ZM87.2357 47.55C87.2357 48.1814 87.0308 48.6707 86.6186 49.0829L88.0328 50.4971C88.8339 49.696 89.2357 48.692 89.2357 47.55H87.2357Z" fill="#3E3D3C" mask="url(#path-1-outside-1_12_237)"/>
</svg>
