<svg width="74" height="51" viewBox="0 0 74 51" fill="none" xmlns="http://www.w3.org/2000/svg">
<mask id="path-1-outside-1_12_217" maskUnits="userSpaceOnUse" x="-1" y="-1" width="76" height="53" fill="black">
<rect fill="white" x="-1" y="-1" width="76" height="53"/>
<path d="M32.56 43.91C29.34 48.4833 24.8367 50.77 19.05 50.77C13.2633 50.77 8.76 48.4833 5.54 43.91C2.32 39.3367 0.71 33.2 0.71 25.5C0.71 17.8 2.32 11.6633 5.54 7.09C8.76 2.51666 13.2633 0.229998 19.05 0.229998C24.8367 0.229998 29.34 2.51666 32.56 7.09C35.78 11.6633 37.39 17.8 37.39 25.5C37.39 33.2 35.78 39.3367 32.56 43.91ZM8.34 41.53C10.9067 45.31 14.4767 47.2 19.05 47.2C23.6233 47.2 27.1933 45.31 29.76 41.53C32.3267 37.7033 33.61 32.36 33.61 25.5C33.61 18.64 32.3267 13.32 29.76 9.54C27.1933 5.71333 23.6233 3.8 19.05 3.8C14.4767 3.8 10.9067 5.71333 8.34 9.54C5.77333 13.32 4.49 18.64 4.49 25.5C4.49 32.36 5.77333 37.7033 8.34 41.53ZM53.9297 0.999997H57.0797V50H53.3697V5.06L42.0297 8.63L41.1197 5.41L53.9297 0.999997ZM72.9019 49.79C72.2952 50.3967 71.5485 50.7 70.6619 50.7C69.7752 50.7 69.0285 50.3967 68.4219 49.79C67.8152 49.1833 67.5119 48.4367 67.5119 47.55C67.5119 46.6633 67.8152 45.9167 68.4219 45.31C69.0285 44.7033 69.7752 44.4 70.6619 44.4C71.5485 44.4 72.2952 44.7033 72.9019 45.31C73.5085 45.9167 73.8119 46.6633 73.8119 47.55C73.8119 48.4367 73.5085 49.1833 72.9019 49.79Z"/>
</mask>
<path d="M32.56 43.91L31.7423 43.3343L32.56 43.91ZM5.54 43.91L6.35766 43.3343L5.54 43.91ZM8.34 41.53L7.5095 42.087L7.51269 42.0918L8.34 41.53ZM29.76 41.53L30.5873 42.0918L30.5905 42.087L29.76 41.53ZM29.76 9.54L28.9295 10.097L28.9327 10.1017L29.76 9.54ZM8.34 9.54L9.16732 10.1018L9.17049 10.097L8.34 9.54ZM31.7423 43.3343C28.7172 47.6309 24.5247 49.77 19.05 49.77V51.77C25.1487 51.77 29.9628 49.3358 33.3777 44.4857L31.7423 43.3343ZM19.05 49.77C13.5753 49.77 9.38279 47.6309 6.35766 43.3343L4.72234 44.4857C8.13721 49.3358 12.9514 51.77 19.05 51.77V49.77ZM6.35766 43.3343C3.29349 38.9823 1.71 33.0696 1.71 25.5H-0.29C-0.29 33.3304 1.34651 39.6911 4.72234 44.4857L6.35766 43.3343ZM1.71 25.5C1.71 17.9304 3.29349 12.0177 6.35766 7.6657L4.72234 6.5143C1.34651 11.3089 -0.29 17.6696 -0.29 25.5H1.71ZM6.35766 7.6657C9.38279 3.36913 13.5753 1.23 19.05 1.23V-0.770001C12.9514 -0.770001 8.13721 1.6642 4.72234 6.5143L6.35766 7.6657ZM19.05 1.23C24.5247 1.23 28.7172 3.36913 31.7423 7.6657L33.3777 6.5143C29.9628 1.6642 25.1487 -0.770001 19.05 -0.770001V1.23ZM31.7423 7.6657C34.8065 12.0177 36.39 17.9304 36.39 25.5H38.39C38.39 17.6696 36.7535 11.3089 33.3777 6.5143L31.7423 7.6657ZM36.39 25.5C36.39 33.0696 34.8065 38.9823 31.7423 43.3343L33.3777 44.4857C36.7535 39.6911 38.39 33.3304 38.39 25.5H36.39ZM7.51269 42.0918C10.2657 46.1462 14.1457 48.2 19.05 48.2V46.2C14.8076 46.2 11.5476 44.4738 9.16731 40.9682L7.51269 42.0918ZM19.05 48.2C23.9543 48.2 27.8343 46.1462 30.5873 42.0918L28.9327 40.9682C26.5524 44.4738 23.2924 46.2 19.05 46.2V48.2ZM30.5905 42.087C33.3094 38.0333 34.61 32.4671 34.61 25.5H32.61C32.61 32.2529 31.3439 37.3733 28.9295 40.973L30.5905 42.087ZM34.61 25.5C34.61 18.5341 33.3099 12.9878 30.5873 8.97825L28.9327 10.1017C31.3435 13.6522 32.61 18.7459 32.61 25.5H34.61ZM30.5905 8.98296C27.8398 4.88196 23.9597 2.8 19.05 2.8V4.8C23.287 4.8 26.5469 6.5447 28.9295 10.097L30.5905 8.98296ZM19.05 2.8C14.1403 2.8 10.2602 4.88196 7.50951 8.98296L9.17049 10.097C11.5531 6.5447 14.813 4.8 19.05 4.8V2.8ZM7.51269 8.97825C4.79013 12.9878 3.49 18.5341 3.49 25.5H5.49C5.49 18.7459 6.75654 13.6522 9.16731 10.1018L7.51269 8.97825ZM3.49 25.5C3.49 32.4671 4.79057 38.0333 7.50951 42.087L9.17049 40.973C6.7561 37.3733 5.49 32.2529 5.49 25.5H3.49ZM53.9297 0.999996V-3.8147e-06H53.7624L53.6042 0.0544596L53.9297 0.999996ZM57.0797 0.999996H58.0797V-3.8147e-06H57.0797V0.999996ZM57.0797 50V51H58.0797V50H57.0797ZM53.3697 50H52.3697V51H53.3697V50ZM53.3697 5.06H54.3697V3.6968L53.0694 4.10615L53.3697 5.06ZM42.0297 8.63L41.0674 8.90195L41.3475 9.89315L42.33 9.58385L42.0297 8.63ZM41.1197 5.41L40.7942 4.46446L39.9003 4.7722L40.1574 5.68196L41.1197 5.41ZM53.9297 2H57.0797V-3.8147e-06H53.9297V2ZM56.0797 0.999996V50H58.0797V0.999996H56.0797ZM57.0797 49H53.3697V51H57.0797V49ZM54.3697 50V5.06H52.3697V50H54.3697ZM53.0694 4.10615L41.7294 7.67615L42.33 9.58385L53.67 6.01385L53.0694 4.10615ZM42.992 8.35804L42.082 5.13804L40.1574 5.68196L41.0674 8.90195L42.992 8.35804ZM41.4452 6.35554L54.2552 1.94553L53.6042 0.0544596L40.7942 4.46446L41.4452 6.35554ZM72.9019 49.79L73.609 50.4971L72.9019 49.79ZM68.4219 49.79L67.7148 50.4971L68.4219 49.79ZM68.4219 45.31L69.129 46.0171L68.4219 45.31ZM72.9019 45.31L73.609 44.6029L72.9019 45.31ZM72.1948 49.0829C71.7825 49.4951 71.2932 49.7 70.6619 49.7V51.7C71.8038 51.7 72.8079 51.2982 73.609 50.4971L72.1948 49.0829ZM70.6619 49.7C70.0305 49.7 69.5412 49.4951 69.129 49.0829L67.7148 50.4971C68.5159 51.2982 69.5199 51.7 70.6619 51.7V49.7ZM69.129 49.0829C68.7168 48.6707 68.5119 48.1814 68.5119 47.55H66.5119C66.5119 48.692 66.9137 49.696 67.7148 50.4971L69.129 49.0829ZM68.5119 47.55C68.5119 46.9186 68.7168 46.4293 69.129 46.0171L67.7148 44.6029C66.9137 45.404 66.5119 46.408 66.5119 47.55H68.5119ZM69.129 46.0171C69.5412 45.6049 70.0305 45.4 70.6619 45.4V43.4C69.5199 43.4 68.5159 43.8018 67.7148 44.6029L69.129 46.0171ZM70.6619 45.4C71.2932 45.4 71.7825 45.6049 72.1948 46.0171L73.609 44.6029C72.8079 43.8018 71.8038 43.4 70.6619 43.4V45.4ZM72.1948 46.0171C72.607 46.4293 72.8119 46.9186 72.8119 47.55H74.8119C74.8119 46.408 74.4101 45.404 73.609 44.6029L72.1948 46.0171ZM72.8119 47.55C72.8119 48.1814 72.607 48.6707 72.1948 49.0829L73.609 50.4971C74.4101 49.696 74.8119 48.692 74.8119 47.55H72.8119Z" fill="#3E3D3C" mask="url(#path-1-outside-1_12_217)"/>
</svg>
