<svg width="87" height="51" viewBox="0 0 87 51" fill="none" xmlns="http://www.w3.org/2000/svg">
<mask id="path-1-outside-1_12_227" maskUnits="userSpaceOnUse" x="-1" y="-1" width="89" height="53" fill="black">
<rect fill="white" x="-1" y="-1" width="89" height="53"/>
<path d="M32.56 43.91C29.34 48.4833 24.8367 50.77 19.05 50.77C13.2633 50.77 8.76 48.4833 5.54 43.91C2.32 39.3367 0.71 33.2 0.71 25.5C0.71 17.8 2.32 11.6633 5.54 7.09C8.76 2.51666 13.2633 0.229998 19.05 0.229998C24.8367 0.229998 29.34 2.51666 32.56 7.09C35.78 11.6633 37.39 17.8 37.39 25.5C37.39 33.2 35.78 39.3367 32.56 43.91ZM8.34 41.53C10.9067 45.31 14.4767 47.2 19.05 47.2C23.6233 47.2 27.1933 45.31 29.76 41.53C32.3267 37.7033 33.61 32.36 33.61 25.5C33.61 18.64 32.3267 13.32 29.76 9.54C27.1933 5.71333 23.6233 3.8 19.05 3.8C14.4767 3.8 10.9067 5.71333 8.34 9.54C5.77333 13.32 4.49 18.64 4.49 25.5C4.49 32.36 5.77333 37.7033 8.34 41.53ZM60.0246 21.37C64.1313 21.79 67.5146 23.26 70.1746 25.78C72.8346 28.3 74.1646 31.66 74.1646 35.86C74.1646 40.4333 72.6013 44.0733 69.4746 46.78C66.3479 49.44 62.5213 50.77 57.9946 50.77C54.3546 50.77 51.1346 49.9533 48.3346 48.32C45.5346 46.6867 43.5513 44.4 42.3846 41.46L45.4646 39.64C46.3513 42.0667 47.8913 43.9333 50.0846 45.24C52.2779 46.5467 54.9146 47.2 57.9946 47.2C61.6346 47.2 64.6213 46.1733 66.9546 44.12C69.2879 42.0667 70.4546 39.3133 70.4546 35.86C70.4546 32.4067 69.2646 29.6533 66.8846 27.6C64.5513 25.5467 61.5413 24.52 57.8546 24.52V24.45L57.7846 24.52H56.8046L55.1946 22.07L67.5846 4.5H43.6446V0.999997H71.8546V4.5L60.0246 21.37ZM85.8218 49.79C85.2151 50.3967 84.4685 50.7 83.5818 50.7C82.6951 50.7 81.9485 50.3967 81.3418 49.79C80.7351 49.1833 80.4318 48.4367 80.4318 47.55C80.4318 46.6633 80.7351 45.9167 81.3418 45.31C81.9485 44.7033 82.6951 44.4 83.5818 44.4C84.4685 44.4 85.2151 44.7033 85.8218 45.31C86.4285 45.9167 86.7318 46.6633 86.7318 47.55C86.7318 48.4367 86.4285 49.1833 85.8218 49.79Z"/>
</mask>
<path d="M32.56 43.91L31.7423 43.3343L32.56 43.91ZM5.54 43.91L6.35766 43.3343L5.54 43.91ZM8.34 41.53L7.5095 42.087L7.51269 42.0918L8.34 41.53ZM29.76 41.53L30.5873 42.0918L30.5905 42.087L29.76 41.53ZM29.76 9.54L28.9295 10.097L28.9327 10.1017L29.76 9.54ZM8.34 9.54L9.16732 10.1018L9.17049 10.097L8.34 9.54ZM31.7423 43.3343C28.7172 47.6309 24.5247 49.77 19.05 49.77V51.77C25.1487 51.77 29.9628 49.3358 33.3777 44.4857L31.7423 43.3343ZM19.05 49.77C13.5753 49.77 9.38279 47.6309 6.35766 43.3343L4.72234 44.4857C8.13721 49.3358 12.9514 51.77 19.05 51.77V49.77ZM6.35766 43.3343C3.29349 38.9823 1.71 33.0696 1.71 25.5H-0.29C-0.29 33.3304 1.34651 39.6911 4.72234 44.4857L6.35766 43.3343ZM1.71 25.5C1.71 17.9304 3.29349 12.0177 6.35766 7.6657L4.72234 6.5143C1.34651 11.3089 -0.29 17.6696 -0.29 25.5H1.71ZM6.35766 7.6657C9.38279 3.36913 13.5753 1.23 19.05 1.23V-0.770001C12.9514 -0.770001 8.13721 1.6642 4.72234 6.5143L6.35766 7.6657ZM19.05 1.23C24.5247 1.23 28.7172 3.36913 31.7423 7.6657L33.3777 6.5143C29.9628 1.6642 25.1487 -0.770001 19.05 -0.770001V1.23ZM31.7423 7.6657C34.8065 12.0177 36.39 17.9304 36.39 25.5H38.39C38.39 17.6696 36.7535 11.3089 33.3777 6.5143L31.7423 7.6657ZM36.39 25.5C36.39 33.0696 34.8065 38.9823 31.7423 43.3343L33.3777 44.4857C36.7535 39.6911 38.39 33.3304 38.39 25.5H36.39ZM7.51269 42.0918C10.2657 46.1462 14.1457 48.2 19.05 48.2V46.2C14.8076 46.2 11.5476 44.4738 9.16731 40.9682L7.51269 42.0918ZM19.05 48.2C23.9543 48.2 27.8343 46.1462 30.5873 42.0918L28.9327 40.9682C26.5524 44.4738 23.2924 46.2 19.05 46.2V48.2ZM30.5905 42.087C33.3094 38.0333 34.61 32.4671 34.61 25.5H32.61C32.61 32.2529 31.3439 37.3733 28.9295 40.973L30.5905 42.087ZM34.61 25.5C34.61 18.5341 33.3099 12.9878 30.5873 8.97825L28.9327 10.1017C31.3435 13.6522 32.61 18.7459 32.61 25.5H34.61ZM30.5905 8.98296C27.8398 4.88196 23.9597 2.8 19.05 2.8V4.8C23.287 4.8 26.5469 6.5447 28.9295 10.097L30.5905 8.98296ZM19.05 2.8C14.1403 2.8 10.2602 4.88196 7.50951 8.98296L9.17049 10.097C11.5531 6.5447 14.813 4.8 19.05 4.8V2.8ZM7.51269 8.97825C4.79013 12.9878 3.49 18.5341 3.49 25.5H5.49C5.49 18.7459 6.75654 13.6522 9.16731 10.1018L7.51269 8.97825ZM3.49 25.5C3.49 32.4671 4.79057 38.0333 7.50951 42.087L9.17049 40.973C6.7561 37.3733 5.49 32.2529 5.49 25.5H3.49ZM60.0246 21.37L59.2059 20.7959L58.2272 22.1914L59.9229 22.3648L60.0246 21.37ZM70.1746 25.78L70.8624 25.054L70.1746 25.78ZM69.4746 46.78L70.1226 47.5417L70.1291 47.5361L69.4746 46.78ZM48.3346 48.32L47.8307 49.1838L48.3346 48.32ZM42.3846 41.46L41.8759 40.5991L41.1397 41.0341L41.4551 41.8288L42.3846 41.46ZM45.4646 39.64L46.4039 39.2968L45.9912 38.1673L44.9559 38.7791L45.4646 39.64ZM50.0846 45.24L49.5728 46.0991L50.0846 45.24ZM66.9546 44.12L67.6152 44.8707L66.9546 44.12ZM66.8846 27.6L66.224 28.3507L66.2314 28.3572L66.8846 27.6ZM57.8546 24.52H56.8546V25.52H57.8546V24.52ZM57.8546 24.45H58.8546V22.0358L57.1475 23.7429L57.8546 24.45ZM57.7846 24.52V25.52H58.1988L58.4917 25.2271L57.7846 24.52ZM56.8046 24.52L55.9689 25.0692L56.2652 25.52H56.8046V24.52ZM55.1946 22.07L54.3774 21.4937L53.985 22.0502L54.3589 22.6192L55.1946 22.07ZM67.5846 4.5L68.4018 5.0763L69.5134 3.5H67.5846V4.5ZM43.6446 4.5H42.6446V5.5H43.6446V4.5ZM43.6446 0.999996V-3.8147e-06H42.6446V0.999996H43.6446ZM71.8546 0.999996H72.8546V-3.8147e-06H71.8546V0.999996ZM71.8546 4.5L72.6734 5.07414L72.8546 4.81568V4.5H71.8546ZM59.9229 22.3648C63.8391 22.7653 67.0073 24.1569 69.4869 26.506L70.8624 25.054C68.0219 22.3631 64.4234 20.8147 60.1264 20.3752L59.9229 22.3648ZM69.4869 26.506C71.9177 28.8089 73.1646 31.8906 73.1646 35.86H75.1646C75.1646 31.4294 73.7515 27.7911 70.8624 25.054L69.4869 26.506ZM73.1646 35.86C73.1646 40.1776 71.7025 43.5287 68.8201 46.0239L70.1291 47.5361C73.5 44.618 75.1646 40.689 75.1646 35.86H73.1646ZM68.8266 46.0183C65.8998 48.5084 62.31 49.77 57.9946 49.77V51.77C62.7326 51.77 66.7961 50.3716 70.1226 47.5417L68.8266 46.0183ZM57.9946 49.77C54.5094 49.77 51.4674 48.9898 48.8385 47.4562L47.8307 49.1838C50.8018 50.9169 54.1998 51.77 57.9946 51.77V49.77ZM48.8385 47.4562C46.2265 45.9326 44.3961 43.8177 43.3141 41.0912L41.4551 41.8288C42.7065 44.9823 44.8427 47.4408 47.8307 49.1838L48.8385 47.4562ZM42.8933 42.3209L45.9733 40.5009L44.9559 38.7791L41.8759 40.5991L42.8933 42.3209ZM44.5253 39.9832C45.4899 42.623 47.1793 44.6732 49.5728 46.0991L50.5964 44.3809C48.6032 43.1935 47.2126 41.5103 46.4039 39.2968L44.5253 39.9832ZM49.5728 46.0991C51.9501 47.5154 54.7717 48.2 57.9946 48.2V46.2C55.0575 46.2 52.6058 45.578 50.5964 44.3809L49.5728 46.0991ZM57.9946 48.2C61.8338 48.2 65.0688 47.1116 67.6152 44.8707L66.294 43.3693C64.1738 45.2351 61.4354 46.2 57.9946 46.2V48.2ZM67.6152 44.8707C70.1897 42.6052 71.4546 39.565 71.4546 35.86H69.4546C69.4546 39.0617 68.3861 41.5282 66.294 43.3693L67.6152 44.8707ZM71.4546 35.86C71.4546 32.1482 70.1614 29.1063 67.5378 26.8428L66.2314 28.3572C68.3679 30.2004 69.4546 32.6652 69.4546 35.86H71.4546ZM67.5452 26.8493C64.9964 24.6063 61.7368 23.52 57.8546 23.52V25.52C61.3458 25.52 64.1061 26.487 66.224 28.3507L67.5452 26.8493ZM58.8546 24.52V24.45H56.8546V24.52H58.8546ZM57.1475 23.7429L57.0775 23.8129L58.4917 25.2271L58.5617 25.1571L57.1475 23.7429ZM57.7846 23.52H56.8046V25.52H57.7846V23.52ZM57.6403 23.9708L56.0303 21.5208L54.3589 22.6192L55.9689 25.0692L57.6403 23.9708ZM56.0118 22.6463L68.4018 5.0763L66.7674 3.9237L54.3774 21.4937L56.0118 22.6463ZM67.5846 3.5H43.6446V5.5H67.5846V3.5ZM44.6446 4.5V0.999996H42.6446V4.5H44.6446ZM43.6446 2H71.8546V-3.8147e-06H43.6446V2ZM70.8546 0.999996V4.5H72.8546V0.999996H70.8546ZM71.0359 3.92585L59.2059 20.7959L60.8434 21.9441L72.6734 5.07414L71.0359 3.92585ZM85.8218 49.79L86.5289 50.4971L85.8218 49.79ZM81.3418 49.79L80.6347 50.4971L81.3418 49.79ZM81.3418 45.31L82.0489 46.0171L81.3418 45.31ZM85.8218 45.31L86.5289 44.6029L85.8218 45.31ZM85.1147 49.0829C84.7025 49.4951 84.2132 49.7 83.5818 49.7V51.7C84.7238 51.7 85.7278 51.2982 86.5289 50.4971L85.1147 49.0829ZM83.5818 49.7C82.9504 49.7 82.4611 49.4951 82.0489 49.0829L80.6347 50.4971C81.4358 51.2982 82.4398 51.7 83.5818 51.7V49.7ZM82.0489 49.0829C81.6367 48.6707 81.4318 48.1814 81.4318 47.55H79.4318C79.4318 48.692 79.8336 49.696 80.6347 50.4971L82.0489 49.0829ZM81.4318 47.55C81.4318 46.9186 81.6367 46.4293 82.0489 46.0171L80.6347 44.6029C79.8336 45.404 79.4318 46.408 79.4318 47.55H81.4318ZM82.0489 46.0171C82.4611 45.6049 82.9504 45.4 83.5818 45.4V43.4C82.4398 43.4 81.4358 43.8018 80.6347 44.6029L82.0489 46.0171ZM83.5818 45.4C84.2132 45.4 84.7025 45.6049 85.1147 46.0171L86.5289 44.6029C85.7278 43.8018 84.7238 43.4 83.5818 43.4V45.4ZM85.1147 46.0171C85.5269 46.4293 85.7318 46.9186 85.7318 47.55H87.7318C87.7318 46.408 87.33 45.404 86.5289 44.6029L85.1147 46.0171ZM85.7318 47.55C85.7318 48.1814 85.5269 48.6707 85.1147 49.0829L86.5289 50.4971C87.33 49.696 87.7318 48.692 87.7318 47.55H85.7318Z" fill="#3E3D3C" mask="url(#path-1-outside-1_12_227)"/>
</svg>
