<svg width="14" height="14" viewBox="0 0 14 14" fill="none" xmlns="http://www.w3.org/2000/svg">
<g clip-path="url(#clip0_28_2010)">
<path d="M4.54803 1.62007C4.42722 1.44632 4.26972 1.30123 4.08666 1.19505C3.9036 1.08887 3.69945 1.02419 3.48865 1.00559C3.27784 0.986992 3.06553 1.01492 2.8667 1.08741C2.66788 1.15989 2.4874 1.27516 2.33803 1.42507L1.85903 1.90507C-0.104966 3.87807 1.56403 7.19507 4.18403 9.81807L4.18103 9.81407C6.80103 12.4351 10.119 14.1061 12.093 12.1401L12.578 11.6551C12.7268 11.5063 12.8412 11.3266 12.9131 11.1289C12.985 10.9311 13.0127 10.7199 12.9942 10.5103C12.9757 10.3007 12.9115 10.0976 12.8061 9.91549C12.7007 9.73335 12.5566 9.57653 12.384 9.45607L11.209 8.63607C10.9067 8.42478 10.5458 8.31356 10.177 8.31804C9.80822 8.32253 9.45011 8.44249 9.15303 8.66107L8.30703 9.28407C8.24863 9.32796 8.17811 9.35276 8.10509 9.35508C8.03207 9.35741 7.96011 9.33715 7.89903 9.29707C7.27278 8.87011 6.68879 8.38423 6.15503 7.84607L6.15203 7.84407C5.61387 7.31024 5.1283 6.72589 4.70203 6.09907C4.66181 6.0381 4.64138 5.96619 4.64353 5.89318C4.64568 5.82016 4.6703 5.74958 4.71403 5.69107L5.33703 4.84507C5.55562 4.54805 5.67568 4.19001 5.68034 3.82125C5.685 3.45249 5.57404 3.09153 5.36303 2.78907L4.54303 1.61307" stroke="white" stroke-width="1.5" stroke-linecap="round" stroke-linejoin="round"/>
</g>
<defs>
<clipPath id="clip0_28_2010">
<rect width="14" height="14" fill="white"/>
</clipPath>
</defs>
</svg>
