<svg width="160" height="26" viewBox="0 0 160 26" fill="none" xmlns="http://www.w3.org/2000/svg">
<path d="M5.90898 25.3295C4.79534 25.3295 3.80292 25.1364 2.93171 24.75C2.0605 24.3561 1.3711 23.7765 0.863525 23.0114C0.363525 22.2386 0.113525 21.2765 0.113525 20.125C0.113525 19.1553 0.291556 18.3409 0.647616 17.6818C1.00368 17.0227 1.48853 16.4924 2.10216 16.0909C2.7158 15.6894 3.41277 15.3864 4.19307 15.1818C4.98095 14.9773 5.80671 14.8333 6.67034 14.75C7.6855 14.6439 8.50368 14.5454 9.12489 14.4545C9.7461 14.3561 10.1969 14.2121 10.4772 14.0227C10.7575 13.8333 10.8976 13.553 10.8976 13.1818V13.1136C10.8976 12.3939 10.6703 11.8371 10.2158 11.4432C9.76883 11.0492 9.13247 10.8523 8.30671 10.8523C7.4355 10.8523 6.74231 11.0454 6.22716 11.4318C5.71201 11.8106 5.3711 12.2879 5.20443 12.8636L0.727162 12.5C0.954435 11.4394 1.4014 10.5227 2.06807 9.74999C2.73474 8.96969 3.59459 8.3712 4.64762 7.95454C5.70822 7.5303 6.9355 7.31818 8.32944 7.31818C9.29913 7.31818 10.2272 7.43181 11.1135 7.65908C12.0075 7.88636 12.7991 8.23863 13.4885 8.7159C14.1855 9.19318 14.7347 9.80681 15.1363 10.5568C15.5378 11.2992 15.7385 12.1894 15.7385 13.2273V25H11.1476V22.5795H11.0113C10.731 23.125 10.356 23.6061 9.88625 24.0227C9.41656 24.4318 8.85216 24.7538 8.19307 24.9886C7.53398 25.2159 6.77262 25.3295 5.90898 25.3295ZM7.29534 21.9886C8.00747 21.9886 8.63625 21.8485 9.18171 21.5682C9.72716 21.2803 10.1552 20.8939 10.4658 20.4091C10.7764 19.9242 10.9317 19.375 10.9317 18.7614V16.9091C10.7802 17.0076 10.5719 17.0985 10.3067 17.1818C10.0491 17.2576 9.75747 17.3295 9.43171 17.3977C9.10595 17.4583 8.78019 17.5151 8.45444 17.5682C8.12868 17.6136 7.83322 17.6553 7.56807 17.6932C6.99989 17.7765 6.50368 17.9091 6.07943 18.0909C5.65519 18.2727 5.32565 18.5189 5.0908 18.8295C4.85595 19.1326 4.73853 19.5114 4.73853 19.9659C4.73853 20.625 4.97716 21.1288 5.45443 21.4773C5.93928 21.8182 6.55292 21.9886 7.29534 21.9886Z" fill="#3E3D3C"/>
<path d="M34.5019 7.54545L28.3997 25H22.9451L16.8428 7.54545H21.9565L25.5815 20.0341H25.7633L29.3769 7.54545H34.5019Z" fill="#3E3D3C"/>
<path d="M36.3392 25V7.54545H41.1801V25H36.3392ZM38.771 5.29545C38.0513 5.29545 37.4339 5.05681 36.9188 4.57954C36.4112 4.09469 36.1574 3.51515 36.1574 2.8409C36.1574 2.17424 36.4112 1.60227 36.9188 1.12499C37.4339 0.640145 38.0513 0.39772 38.771 0.39772C39.4907 0.39772 40.1044 0.640145 40.6119 1.12499C41.1271 1.60227 41.3847 2.17424 41.3847 2.8409C41.3847 3.51515 41.1271 4.09469 40.6119 4.57954C40.1044 5.05681 39.4907 5.29545 38.771 5.29545Z" fill="#3E3D3C"/>
<path d="M49.3952 25.3295C48.2816 25.3295 47.2892 25.1364 46.418 24.75C45.5467 24.3561 44.8574 23.7765 44.3498 23.0114C43.8498 22.2386 43.5998 21.2765 43.5998 20.125C43.5998 19.1553 43.7778 18.3409 44.1339 17.6818C44.4899 17.0227 44.9748 16.4924 45.5884 16.0909C46.202 15.6894 46.899 15.3864 47.6793 15.1818C48.4672 14.9773 49.293 14.8333 50.1566 14.75C51.1717 14.6439 51.9899 14.5454 52.6111 14.4545C53.2324 14.3561 53.6831 14.2121 53.9634 14.0227C54.2437 13.8333 54.3839 13.553 54.3839 13.1818V13.1136C54.3839 12.3939 54.1566 11.8371 53.702 11.4432C53.2551 11.0492 52.6187 10.8523 51.793 10.8523C50.9217 10.8523 50.2286 11.0454 49.7134 11.4318C49.1983 11.8106 48.8574 12.2879 48.6907 12.8636L44.2134 12.5C44.4407 11.4394 44.8877 10.5227 45.5543 9.74999C46.221 8.96969 47.0808 8.3712 48.1339 7.95454C49.1945 7.5303 50.4217 7.31818 51.8157 7.31818C52.7854 7.31818 53.7134 7.43181 54.5998 7.65908C55.4937 7.88636 56.2854 8.23863 56.9748 8.7159C57.6717 9.19318 58.221 9.80681 58.6225 10.5568C59.024 11.2992 59.2248 12.1894 59.2248 13.2273V25H54.6339V22.5795H54.4975C54.2172 23.125 53.8422 23.6061 53.3725 24.0227C52.9028 24.4318 52.3384 24.7538 51.6793 24.9886C51.0202 25.2159 50.2589 25.3295 49.3952 25.3295ZM50.7816 21.9886C51.4937 21.9886 52.1225 21.8485 52.668 21.5682C53.2134 21.2803 53.6414 20.8939 53.952 20.4091C54.2627 19.9242 54.418 19.375 54.418 18.7614V16.9091C54.2664 17.0076 54.0581 17.0985 53.793 17.1818C53.5354 17.2576 53.2437 17.3295 52.918 17.3977C52.5922 17.4583 52.2664 17.5151 51.9407 17.5682C51.6149 17.6136 51.3195 17.6553 51.0543 17.6932C50.4861 17.7765 49.9899 17.9091 49.5657 18.0909C49.1414 18.2727 48.8119 18.5189 48.577 18.8295C48.3422 19.1326 48.2248 19.5114 48.2248 19.9659C48.2248 20.625 48.4634 21.1288 48.9407 21.4773C49.4255 21.8182 50.0392 21.9886 50.7816 21.9886Z" fill="#3E3D3C"/>
<path d="M76.9931 25.3409C75.2052 25.3409 73.6673 24.9621 72.3794 24.2045C71.0991 23.4394 70.1143 22.3788 69.4249 21.0227C68.7431 19.6667 68.4022 18.1061 68.4022 16.3409C68.4022 14.553 68.7469 12.9848 69.4363 11.6364C70.1332 10.2803 71.1219 9.22348 72.4022 8.4659C73.6825 7.70075 75.2052 7.31818 76.9703 7.31818C78.4931 7.31818 79.8264 7.59469 80.9703 8.14772C82.1143 8.70075 83.0196 9.47727 83.6863 10.4773C84.3529 11.4773 84.7203 12.6515 84.7885 14H80.2203C80.0916 13.1288 79.7506 12.428 79.1976 11.8977C78.6522 11.3598 77.9362 11.0909 77.0499 11.0909C76.2999 11.0909 75.6446 11.2954 75.084 11.7045C74.531 12.1061 74.0991 12.6932 73.7885 13.4659C73.4779 14.2386 73.3226 15.1742 73.3226 16.2727C73.3226 17.3864 73.4741 18.3333 73.7772 19.1136C74.0878 19.8939 74.5234 20.4886 75.084 20.8977C75.6446 21.3068 76.2999 21.5114 77.0499 21.5114C77.6029 21.5114 78.0991 21.3977 78.5385 21.1704C78.9855 20.9432 79.3529 20.6136 79.6408 20.1818C79.9363 19.7424 80.1294 19.2159 80.2203 18.6023H84.7885C84.7128 19.9356 84.3491 21.1098 83.6976 22.125C83.0537 23.1326 82.1635 23.9204 81.0272 24.4886C79.8908 25.0568 78.5461 25.3409 76.9931 25.3409Z" fill="#3E3D3C"/>
<path d="M92.0889 14.9091V25H87.248V1.72727H91.9525V10.625H92.1571C92.551 9.59469 93.1874 8.78787 94.0661 8.20454C94.9449 7.61363 96.0472 7.31818 97.373 7.31818C98.5851 7.31818 99.6419 7.58333 100.543 8.11363C101.453 8.63636 102.157 9.39015 102.657 10.375C103.165 11.3523 103.415 12.5227 103.407 13.8864V25H98.5661V14.75C98.5737 13.6742 98.301 12.8371 97.748 12.2386C97.2025 11.6401 96.4374 11.3409 95.4525 11.3409C94.7934 11.3409 94.2101 11.4811 93.7025 11.7614C93.2025 12.0417 92.8086 12.4508 92.5207 12.9886C92.2404 13.5189 92.0964 14.1591 92.0889 14.9091Z" fill="#3E3D3C"/>
<path d="M114.531 25.3409C112.736 25.3409 111.19 24.9773 109.895 24.25C108.607 23.5151 107.615 22.4773 106.918 21.1364C106.221 19.7879 105.872 18.1932 105.872 16.3523C105.872 14.5568 106.221 12.9811 106.918 11.625C107.615 10.2689 108.596 9.21212 109.861 8.45454C111.134 7.69696 112.626 7.31818 114.338 7.31818C115.49 7.31818 116.562 7.50378 117.554 7.87499C118.554 8.23863 119.425 8.78787 120.168 9.52272C120.918 10.2576 121.501 11.1818 121.918 12.2954C122.334 13.4015 122.543 14.697 122.543 16.1818V17.5114H107.804V14.5114H117.986C117.986 13.8144 117.834 13.197 117.531 12.6591C117.228 12.1212 116.808 11.7008 116.27 11.3977C115.74 11.0871 115.122 10.9318 114.418 10.9318C113.683 10.9318 113.031 11.1023 112.463 11.4432C111.902 11.7765 111.463 12.2273 111.145 12.7954C110.827 13.3561 110.664 13.9811 110.656 14.6704V17.5227C110.656 18.3864 110.815 19.1326 111.134 19.7614C111.459 20.3901 111.918 20.875 112.509 21.2159C113.099 21.5568 113.8 21.7273 114.611 21.7273C115.149 21.7273 115.641 21.6515 116.088 21.5C116.535 21.3485 116.918 21.1212 117.236 20.8182C117.554 20.5151 117.796 20.1439 117.963 19.7045L122.44 20C122.213 21.0758 121.747 22.0151 121.043 22.8182C120.346 23.6136 119.444 24.2348 118.338 24.6818C117.24 25.1212 115.971 25.3409 114.531 25.3409Z" fill="#3E3D3C"/>
<path d="M132.948 25.3409C131.16 25.3409 129.622 24.9621 128.334 24.2045C127.054 23.4394 126.069 22.3788 125.38 21.0227C124.698 19.6667 124.357 18.1061 124.357 16.3409C124.357 14.553 124.702 12.9848 125.391 11.6364C126.088 10.2803 127.077 9.22348 128.357 8.4659C129.637 7.70075 131.16 7.31818 132.925 7.31818C134.448 7.31818 135.781 7.59469 136.925 8.14772C138.069 8.70075 138.975 9.47727 139.641 10.4773C140.308 11.4773 140.675 12.6515 140.744 14H136.175C136.047 13.1288 135.706 12.428 135.153 11.8977C134.607 11.3598 133.891 11.0909 133.005 11.0909C132.255 11.0909 131.6 11.2954 131.039 11.7045C130.486 12.1061 130.054 12.6932 129.744 13.4659C129.433 14.2386 129.278 15.1742 129.278 16.2727C129.278 17.3864 129.429 18.3333 129.732 19.1136C130.043 19.8939 130.478 20.4886 131.039 20.8977C131.6 21.3068 132.255 21.5114 133.005 21.5114C133.558 21.5114 134.054 21.3977 134.494 21.1704C134.941 20.9432 135.308 20.6136 135.596 20.1818C135.891 19.7424 136.084 19.2159 136.175 18.6023H140.744C140.668 19.9356 140.304 21.1098 139.653 22.125C139.009 23.1326 138.119 23.9204 136.982 24.4886C135.846 25.0568 134.501 25.3409 132.948 25.3409Z" fill="#3E3D3C"/>
<path d="M147.589 19.9773L147.601 14.1704H148.305L153.896 7.54545H159.453L151.942 16.3182H150.794L147.589 19.9773ZM143.203 25V1.72727H148.044V25H143.203ZM154.112 25L148.976 17.3977L152.203 13.9773L159.783 25H154.112Z" fill="#3E3D3C"/>
</svg>
