<svg width="14" height="14" viewBox="0 0 14 14" fill="none" xmlns="http://www.w3.org/2000/svg">
<g clip-path="url(#clip0_6_162)">
<path d="M4.54803 1.62C4.42722 1.44625 4.26972 1.30115 4.08666 1.19497C3.9036 1.08879 3.69945 1.02412 3.48865 1.00552C3.27784 0.986916 3.06553 1.01485 2.8667 1.08733C2.66788 1.15982 2.4874 1.27509 2.33803 1.425L1.85903 1.905C-0.104966 3.878 1.56403 7.195 4.18403 9.818L4.18103 9.814C6.80103 12.435 10.119 14.106 12.093 12.14L12.578 11.655C12.7268 11.5062 12.8412 11.3266 12.9131 11.1288C12.985 10.931 13.0127 10.7199 12.9942 10.5102C12.9757 10.3006 12.9115 10.0976 12.8061 9.91542C12.7007 9.73328 12.5566 9.57646 12.384 9.456L11.209 8.636C10.9067 8.4247 10.5458 8.31348 10.177 8.31796C9.80822 8.32245 9.45011 8.44242 9.15303 8.661L8.30703 9.284C8.24863 9.32788 8.17811 9.35268 8.10509 9.35501C8.03207 9.35733 7.96011 9.33708 7.89903 9.297C7.27278 8.87003 6.68879 8.38415 6.15503 7.846L6.15203 7.844C5.61387 7.31017 5.1283 6.72581 4.70203 6.099C4.66181 6.03802 4.64138 5.96612 4.64353 5.8931C4.64568 5.82008 4.6703 5.74951 4.71403 5.691L5.33703 4.845C5.55562 4.54797 5.67568 4.18993 5.68034 3.82118C5.685 3.45242 5.57404 3.09146 5.36303 2.789L4.54303 1.613" stroke="#938C7B" stroke-width="1.5" stroke-linecap="round" stroke-linejoin="round"/>
</g>
<defs>
<clipPath id="clip0_6_162">
<rect width="14" height="14" fill="white"/>
</clipPath>
</defs>
</svg>
