<svg width="20" height="20" viewBox="0 0 20 20" fill="none" xmlns="http://www.w3.org/2000/svg">
<path d="M17.0834 9.41666V5.86668C17.0834 2.50835 16.3001 1.66667 13.1501 1.66667H6.85008C3.70008 1.66667 2.91675 2.50835 2.91675 5.86668V15.25C2.91675 17.4667 4.13342 17.9917 5.60842 16.4083L5.61674 16.4C6.30007 15.675 7.34174 15.7333 7.93341 16.525L8.77508 17.65" stroke="#3B3D40" stroke-width="1.5" stroke-linecap="round" stroke-linejoin="round"/>
<path d="M6.66675 5.83333H13.3334" stroke="#3B3D40" stroke-width="1.5" stroke-linecap="round" stroke-linejoin="round"/>
<path d="M7.5 9.16667H12.5" stroke="#3B3D40" stroke-width="1.5" stroke-linecap="round" stroke-linejoin="round"/>
<path d="M15.1758 12.3086L12.2258 15.2586C12.1091 15.3752 12.0008 15.5919 11.9758 15.7502L11.8174 16.8752C11.7591 17.2836 12.0424 17.5669 12.4508 17.5086L13.5758 17.3502C13.7341 17.3252 13.9591 17.2169 14.0674 17.1002L17.0174 14.1502C17.5258 13.6419 17.7674 13.0502 17.0174 12.3002C16.2758 11.5586 15.6841 11.8002 15.1758 12.3086Z" stroke="#3B3D40" stroke-width="1.5" stroke-miterlimit="10" stroke-linecap="round" stroke-linejoin="round"/>
<path d="M14.7493 12.7336C14.9993 13.6336 15.6993 14.3336 16.5993 14.5836" stroke="#3B3D40" stroke-width="1.5" stroke-miterlimit="10" stroke-linecap="round" stroke-linejoin="round"/>
</svg>
