<svg width="22" height="22" viewBox="0 0 22 22" fill="none" xmlns="http://www.w3.org/2000/svg">
<path d="M4.96243 10.166C8.72052 8.47251 11.2265 7.35607 12.4804 6.81666C16.0604 5.27655 16.8043 5.00901 17.2892 5.00009C17.3958 4.99824 17.6343 5.02557 17.7887 5.1552C17.9192 5.26465 17.955 5.4125 17.9722 5.51628C17.9894 5.62005 18.0108 5.85645 17.9938 6.04116C17.7998 8.14946 16.9603 13.2658 16.5332 15.6271C16.3525 16.6263 15.9967 16.9613 15.6522 16.9941C14.9036 17.0653 14.3351 16.4824 13.6101 15.9908C12.4755 15.2215 11.8345 14.7427 10.7332 13.992C9.46037 13.1245 10.2855 12.6477 11.0108 11.8685C11.2006 11.6646 14.4991 8.56157 14.5629 8.28007C14.5709 8.24487 14.5783 8.11364 14.503 8.04434C14.4276 7.97505 14.3163 7.99874 14.236 8.01759C14.1222 8.0443 12.3097 9.2834 8.7984 11.7349C8.28392 12.1003 7.81791 12.2783 7.40039 12.269C6.9401 12.2587 6.05469 11.9998 5.39648 11.7785C4.58916 11.5071 3.94752 11.3636 4.00339 10.9026C4.03249 10.6625 4.35217 10.417 4.96243 10.166Z" fill="#3E3D3C"/>
</svg>
