<svg width="16" height="16" viewBox="0 0 16 16" fill="none" xmlns="http://www.w3.org/2000/svg">
<path d="M3.92 14.88C5.12 15.6 6.56 16 8 16C12.4 16 16 12.4 16 8C16 3.6 12.4 0 8 0C3.6 0 0 3.6 0 8C0 9.44 0.4 10.8 1.04 12L0.440443 14.306C0.24572 15.0549 0.938924 15.7317 1.68299 15.5191L3.92 14.88Z" fill="#3E3D3C"/>
<path d="M12 10.532C12 10.676 11.968 10.824 11.8998 10.968C11.8317 11.112 11.7436 11.248 11.6274 11.376C11.4311 11.592 11.2148 11.748 10.9705 11.848C10.7301 11.948 10.4697 12 10.1893 12C9.78067 12 9.34402 11.904 8.88333 11.708C8.42263 11.512 7.96194 11.248 7.50526 10.916C7.04457 10.58 6.60791 10.208 6.19129 9.796C5.77867 9.38 5.40611 8.944 5.07361 8.488C4.74512 8.032 4.48072 7.576 4.28843 7.124C4.09614 6.668 4 6.232 4 5.816C4 5.544 4.04807 5.284 4.14422 5.044C4.24036 4.8 4.39259 4.576 4.60491 4.376C4.86129 4.124 5.14171 4 5.43816 4C5.55033 4 5.66249 4.024 5.76264 4.072C5.8668 4.12 5.95894 4.192 6.03105 4.296L6.96044 5.604C7.03255 5.704 7.08463 5.796 7.12068 5.884C7.15674 5.968 7.17677 6.052 7.17677 6.128C7.17677 6.224 7.14872 6.32 7.09264 6.412C7.04056 6.504 6.96445 6.6 6.8683 6.696L6.56385 7.012C6.51978 7.056 6.49975 7.108 6.49975 7.172C6.49975 7.204 6.50376 7.232 6.51177 7.264C6.52379 7.296 6.5358 7.32 6.54382 7.344C6.61592 7.476 6.74011 7.648 6.91637 7.856C7.09664 8.064 7.28893 8.276 7.49725 8.488C7.71357 8.7 7.92188 8.896 8.1342 9.076C8.34251 9.252 8.51477 9.372 8.65098 9.444C8.67101 9.452 8.69504 9.464 8.72308 9.476C8.75513 9.488 8.78718 9.492 8.82324 9.492C8.89134 9.492 8.94342 9.468 8.98748 9.424L9.29194 9.124C9.39209 9.024 9.48823 8.948 9.58037 8.9C9.67251 8.844 9.76465 8.816 9.8648 8.816C9.94091 8.816 10.021 8.832 10.1092 8.868C10.1973 8.904 10.2894 8.956 10.3896 9.024L11.7156 9.964C11.8197 10.036 11.8918 10.12 11.9359 10.22C11.976 10.32 12 10.42 12 10.532Z" fill="#FAFAFA"/>
</svg>
